<?xml version="1.0" encoding="UTF-8"?>
<svg width="18px" height="18px" enable-background="new 0 0 477.867 477.867" fill="#a86bd0" version="1.1" viewBox="0 0 477.87 477.87" xml:space="preserve" xmlns="http://www.w3.org/2000/svg">

	
		<path d="m443.73 68.267h-119.47v-17.067c0-28.277-22.923-51.2-51.2-51.2h-68.267c-28.277 0-51.2 22.923-51.2 51.2v17.067h-119.47c-9.426 0-17.067 7.641-17.067 17.067s7.642 17.066 17.067 17.066h18.551l32.649 359.95c0.805 8.814 8.216 15.55 17.067 15.514h273.07c8.851 0.037 16.261-6.699 17.067-15.514l32.648-359.95h18.552c9.426 0 17.067-7.641 17.067-17.067s-7.642-17.066-17.068-17.066zm-256-17.067c0-9.426 7.641-17.067 17.067-17.067h68.267c9.426 0 17.067 7.641 17.067 17.067v17.067h-102.4v-17.067zm172.15 392.53h-241.9l-30.942-341.33h303.87l-31.027 341.33z"/>
	


	
		<path d="m187.74 391.39c-2e-3 -0.023-3e-3 -0.047-5e-3 -0.07l-17.067-238.93c-0.669-9.426-8.853-16.524-18.278-15.855-9.426 0.669-16.524 8.853-15.855 18.278l17.067 238.93c0.637 8.949 8.095 15.878 17.067 15.855h1.229c9.403-0.653 16.496-8.805 15.842-18.208z"/>
	


	
		<path d="m238.93 136.53c-9.426 0-17.067 7.641-17.067 17.067v238.93c0 9.426 7.641 17.067 17.067 17.067s17.067-7.641 17.067-17.067v-238.93c0-9.426-7.641-17.067-17.067-17.067z"/>
	


	
		<path d="m325.48 136.53c-9.426-0.669-17.609 6.429-18.278 15.855l-17.067 238.93c-0.691 9.4 6.369 17.581 15.769 18.272 0.029 2e-3 0.057 4e-3 0.086 6e-3h1.212c8.972 0.023 16.43-6.906 17.067-15.855l17.067-238.93c0.669-9.425-6.43-17.608-15.856-18.278z"/>
	
















</svg>
